<svg width="69" height="69" viewBox="0 0 69 69" fill="none" xmlns="http://www.w3.org/2000/svg">
<path d="M34.5 0C15.4755 0 0 15.477 0 34.5C0 53.523 15.4755 69 34.5 69C53.5245 69 69 53.523 69 34.5C69 15.477 53.5245 0 34.5 0ZM48.2152 35.7087L28.0903 48.6462C27.8544 48.7992 27.5821 48.875 27.3125 48.875C27.0767 48.875 26.838 48.816 26.6247 48.6996C26.1614 48.4469 25.875 47.9639 25.875 47.4375V21.5625C25.875 21.0361 26.1614 20.5531 26.6247 20.3004C27.0795 20.0506 27.6495 20.0659 28.0903 20.3538L48.2152 33.2913C48.6252 33.5552 48.875 34.0115 48.875 34.5C48.875 34.9885 48.6252 35.4447 48.2152 35.7087Z" fill="#3A3A3A"/>
</svg>

