<svg width="69" height="69" viewBox="0 0 69 69" fill="none" xmlns="http://www.w3.org/2000/svg">
<path d="M34.5 54.3779C36.3607 54.3779 37.8691 52.8695 37.8691 51.0088C37.8691 49.1481 36.3607 47.6396 34.5 47.6396C32.6393 47.6396 31.1309 49.1481 31.1309 51.0088C31.1309 52.8695 32.6393 54.3779 34.5 54.3779Z" fill="black"/>
<path d="M34.5 0C15.4328 0 0 15.4303 0 34.5C0 53.5672 15.4303 69 34.5 69C53.5672 69 69 53.5697 69 34.5C69 15.4328 53.5697 0 34.5 0ZM34.5 63.6094C18.4121 63.6094 5.39062 50.5901 5.39062 34.5C5.39062 18.4121 18.4099 5.39062 34.5 5.39062C50.5879 5.39062 63.6094 18.4099 63.6094 34.5C63.6094 50.5879 50.5901 63.6094 34.5 63.6094Z" fill="black"/>
<path d="M34.5 17.3174C28.5552 17.3174 23.7188 22.1539 23.7188 28.0986C23.7188 29.5873 24.9254 30.7939 26.4141 30.7939C27.9027 30.7939 29.1094 29.5873 29.1094 28.0986C29.1094 25.1262 31.5276 22.708 34.5 22.708C37.4724 22.708 39.8906 25.1262 39.8906 28.0986C39.8906 31.071 37.4724 33.4893 34.5 33.4893C33.0114 33.4893 31.8047 34.6959 31.8047 36.1846V42.9229C31.8047 44.4115 33.0114 45.6182 34.5 45.6182C35.9886 45.6182 37.1953 44.4115 37.1953 42.9229V38.5388C41.8401 37.339 45.2812 33.1131 45.2812 28.0986C45.2812 22.1539 40.4448 17.3174 34.5 17.3174Z" fill="black"/>
</svg>

