<svg width="202" height="202" viewBox="0 0 202 202" fill="none" xmlns="http://www.w3.org/2000/svg">
<path d="M202 101C202 45.1785 156.828 0 101 0C45.1785 0 0 45.1723 0 101C0 156.327 44.7947 202 101 202C156.974 202 202 156.581 202 101ZM101 11.8359C150.165 11.8359 190.164 51.8346 190.164 101C190.164 118.985 184.815 136.272 174.894 150.914C135.059 108.065 67.0133 107.988 27.1055 150.914C17.1852 136.272 11.8359 118.985 11.8359 101C11.8359 51.8346 51.8346 11.8359 101 11.8359ZM34.4876 160.377C69.906 120.65 132.103 120.659 167.511 160.377C131.974 200.135 70.0401 200.148 34.4876 160.377Z" fill="black"/>
<path d="M101 106.918C120.579 106.918 136.508 90.9888 136.508 71.4102V59.5742C136.508 39.9956 120.579 24.0664 101 24.0664C81.4214 24.0664 65.4922 39.9956 65.4922 59.5742V71.4102C65.4922 90.9888 81.4214 106.918 101 106.918ZM77.3281 59.5742C77.3281 46.5208 87.9466 35.9023 101 35.9023C114.053 35.9023 124.672 46.5208 124.672 59.5742V71.4102C124.672 84.4636 114.053 95.082 101 95.082C87.9466 95.082 77.3281 84.4636 77.3281 71.4102V59.5742Z" fill="black"/>
</svg>
